# Blender 4.0.2
# www.blender.org
mtllib textured.mtl
o Cube
v -0.006876 -0.068653 0.063648
v -0.006876 0.171347 0.063648
v -0.006876 -0.068653 -0.096352
v -0.006876 0.171347 -0.096352
v 0.023124 -0.068653 0.063648
v 0.023124 0.171347 0.063648
v 0.023124 -0.068653 -0.096352
v 0.023124 0.171347 -0.096352
vn -1.0000 -0.0000 -0.0000
vn -0.0000 -0.0000 -1.0000
vn 1.0000 -0.0000 -0.0000
vn -0.0000 -0.0000 1.0000
vn -0.0000 -1.0000 -0.0000
vn -0.0000 1.0000 -0.0000
vt 0.000000 0.000000
vt 0.387041 0.500000
vt 0.000000 0.500000
vt 0.187449 1.000000
vt 0.000000 1.000000
vt 0.387041 0.387041
vt 0.887041 -0.000000
vt 0.887041 0.387041
vt 0.187449 0.500000
vt 0.374899 1.000000
vt 0.374899 0.887041
vt 0.562348 0.500000
vt 0.562348 0.887041
vt 0.749798 0.500000
vt 0.749798 0.887041
vt 0.387041 0.000000
vt 0.387041 0.000000
vt 0.374899 0.500000
s 0
usemtl Material.001
f 2/1/1 3/2/1 1/3/1
f 4/3/2 7/4/2 3/5/2
f 8/6/3 5/7/3 7/8/3
f 6/9/4 1/10/4 5/4/4
f 7/11/5 1/12/5 3/13/5
f 4/13/6 6/14/6 8/15/6
f 2/1/1 4/16/1 3/2/1
f 4/3/2 8/9/2 7/4/2
f 8/6/3 6/17/3 5/7/3
f 6/9/4 2/18/4 1/10/4
f 7/11/5 5/18/5 1/12/5
f 4/13/6 2/12/6 6/14/6
